<svg width="2429" height="1007" viewBox="0 0 2429 1007" fill="none" xmlns="http://www.w3.org/2000/svg">
<rect width="2429" height="1007" fill="url(#paint0_linear_202_1715)"/>
<path d="M677.926 259.873C671.762 264.097 669.404 271.131 670.719 277.575C671.388 280.842 670.049 284.2 667.691 286.558L657.705 296.545C655.347 298.907 651.985 300.241 648.722 299.572C642.274 298.257 635.243 300.615 631.015 306.78C627.087 312.511 627.11 320.428 631.074 326.136C637.412 335.268 650.056 336.103 657.539 328.616C661.708 324.447 663.251 318.684 662.236 313.303C661.606 309.945 662.763 306.504 665.18 304.083L675.23 294.034C677.647 291.617 681.091 290.459 684.449 291.093C689.834 292.109 695.593 290.561 699.762 286.393C707.245 278.909 706.415 266.266 697.282 259.928C694.412 257.936 690.992 256.94 687.567 256.94C684.174 256.94 680.78 257.916 677.926 259.873" fill="url(#paint1_linear_202_1715)"/>
<path d="M613.652 259.929C608.798 265.609 608.334 273.006 611.274 278.895C612.762 281.875 612.341 285.465 610.676 288.354L603.614 300.589C601.949 303.478 599.044 305.639 595.717 305.836C589.147 306.234 582.971 310.332 580.487 317.378C578.172 323.932 580.243 331.573 585.549 336.064C594.032 343.245 606.46 340.772 611.754 331.608C614.703 326.499 614.703 320.539 612.329 315.599C610.845 312.52 611.077 308.899 612.786 305.935L619.891 293.625C621.6 290.661 624.627 288.653 628.032 288.394C633.496 287.984 638.66 285 641.609 279.895C646.899 270.731 642.829 258.736 632.362 254.973C630.543 254.315 628.634 254 626.733 254C621.804 254 616.915 256.118 613.652 259.929Z" fill="url(#paint2_linear_202_1715)"/>
<path d="M551.585 276.614C548.361 283.357 549.829 290.624 554.195 295.544C556.403 298.04 556.931 301.626 556.065 304.842L552.408 318.49C551.546 321.706 549.306 324.548 546.141 325.599C539.902 327.682 534.993 333.24 534.414 340.692C533.879 347.624 537.855 354.465 544.137 357.43C554.199 362.173 565.563 356.568 568.299 346.344C569.827 340.644 568.284 334.889 564.713 330.732C562.485 328.142 561.769 324.58 562.654 321.281L566.331 307.55C567.213 304.248 569.618 301.52 572.838 300.39C578.011 298.575 582.227 294.363 583.754 288.667C586.494 278.444 579.455 267.906 568.374 266.985C567.925 266.946 567.477 266.926 567.028 266.926C560.572 266.926 554.388 270.756 551.585 276.614" fill="url(#paint3_linear_202_1715)"/>
<path d="M509.673 295.149C502.836 296.389 497.226 301.963 495.951 308.801C494.581 316.146 497.88 322.787 503.367 326.409C506.154 328.247 507.583 331.569 507.583 334.904V349.032C507.583 352.366 506.154 355.688 503.371 357.527C497.88 361.152 494.581 367.789 495.951 375.139C497.226 381.972 502.836 387.55 509.673 388.79C520.617 390.762 530.147 382.405 530.147 371.824C530.147 365.927 527.163 360.762 522.636 357.676C519.814 355.743 518.2 352.496 518.2 349.075V334.86C518.2 331.444 519.814 328.188 522.636 326.259C527.163 323.173 530.147 318.008 530.147 312.111C530.147 302.585 522.42 294.862 512.893 294.862C511.838 294.862 510.764 294.956 509.673 295.149" fill="url(#paint4_linear_202_1715)"/>
<path d="M460.266 337.556C453.98 340.516 450.004 347.362 450.539 354.286C451.118 361.738 456.027 367.3 462.266 369.378C465.431 370.433 467.675 373.272 468.537 376.495L472.19 390.139C473.056 393.363 472.532 396.942 470.32 399.433C465.954 404.358 464.486 411.625 467.714 418.368C470.71 424.639 477.571 428.575 484.503 427.997C495.58 427.075 502.619 416.537 499.883 406.322C498.356 400.618 494.14 396.406 488.967 394.591C485.743 393.462 483.342 390.738 482.46 387.435L478.775 373.701C477.89 370.406 478.61 366.843 480.838 364.249C484.409 360.092 485.952 354.333 484.424 348.637C482.358 340.933 475.39 335.847 467.773 335.847C465.289 335.847 462.738 336.387 460.266 337.556" fill="url(#paint5_linear_202_1715)"/>
<path d="M423.515 391.295C418.208 395.782 416.138 403.423 418.453 409.977C420.94 417.024 427.117 421.125 433.683 421.519C437.009 421.72 439.91 423.881 441.579 426.77L448.645 439.001C450.31 441.89 450.732 445.48 449.24 448.464C446.299 454.353 446.76 461.75 451.621 467.43C456.14 472.709 463.789 474.736 470.331 472.386C480.795 468.623 484.869 456.628 479.578 447.46C476.626 442.355 471.465 439.375 466.001 438.958C462.592 438.702 459.569 436.69 457.861 433.73L450.751 421.421C449.043 418.46 448.815 414.835 450.295 411.757C452.668 406.82 452.668 400.856 449.72 395.751C446.524 390.216 440.725 387.122 434.761 387.122C430.852 387.122 426.877 388.449 423.515 391.295" fill="url(#paint6_linear_202_1715)"/>
<path d="M401.928 452.718C397.96 458.433 397.94 466.342 401.872 472.077C406.1 478.242 413.127 480.6 419.571 479.281C422.838 478.612 426.2 479.95 428.558 482.308L438.545 492.299C440.903 494.653 442.241 498.019 441.572 501.282C440.253 507.73 442.615 514.756 448.78 518.988C454.511 522.917 462.427 522.889 468.135 518.929C477.272 512.587 478.099 499.943 470.615 492.464C466.447 488.295 460.687 486.752 455.298 487.768C451.945 488.398 448.5 487.24 446.083 484.823L436.029 474.77C433.616 472.357 432.455 468.912 433.089 465.554C434.1 460.169 432.561 454.41 428.393 450.238C425.023 446.872 420.606 445.187 416.189 445.187C410.8 445.187 405.411 447.695 401.928 452.718" fill="url(#paint7_linear_202_1715)"/>
<path d="M396.967 517.642C394.621 524.181 396.645 531.829 401.927 536.348C407.6 541.21 415.004 541.67 420.886 538.73C423.869 537.238 427.463 537.663 430.349 539.328L442.583 546.39C445.469 548.055 447.634 550.957 447.835 554.287C448.228 560.853 452.33 567.029 459.376 569.517C465.931 571.832 473.567 569.757 478.059 564.455C485.239 555.968 482.767 543.54 473.603 538.25C468.497 535.301 462.534 535.301 457.593 537.675C454.515 539.155 450.889 538.927 447.929 537.218L435.62 530.113C432.66 528.401 430.648 525.377 430.392 521.968C429.979 516.508 426.999 511.344 421.889 508.391C419.173 506.821 416.209 506.077 413.28 506.077C406.336 506.077 399.613 510.277 396.967 517.642" fill="url(#paint8_linear_202_1715)"/>
<path d="M408.981 581.63C408.407 588.554 412.347 595.419 418.618 598.419C425.353 601.643 432.624 600.171 437.545 595.809C440.044 593.601 443.623 593.073 446.843 593.935L460.486 597.592C463.706 598.458 466.545 600.698 467.6 603.863C469.682 610.102 475.24 615.011 482.692 615.586C489.62 616.125 496.462 612.149 499.426 605.863C504.17 595.805 498.564 584.441 488.341 581.705C482.645 580.177 476.89 581.72 472.729 585.291C470.139 587.515 466.58 588.235 463.277 587.354L449.547 583.673C446.248 582.791 443.52 580.39 442.39 577.162C440.576 571.993 436.36 567.773 430.664 566.25C429.168 565.849 427.664 565.656 426.188 565.656C417.567 565.656 409.769 572.17 408.981 581.63" fill="url(#paint9_linear_202_1715)"/>
<path d="M499.674 627.362C497.745 630.189 494.494 631.799 491.077 631.799H476.858C473.442 631.799 470.19 630.189 468.261 627.362C465.171 622.839 460.01 619.855 454.113 619.855C443.528 619.855 435.175 629.382 437.147 640.329C438.383 647.167 443.969 652.78 450.799 654.052C458.144 655.421 464.785 652.123 468.411 646.635C470.249 643.848 473.568 642.419 476.902 642.419H491.034C494.364 642.419 497.686 643.848 499.525 646.635C503.15 652.123 509.791 655.421 517.14 654.052C523.97 652.772 529.548 647.167 530.784 640.329C532.764 629.382 524.403 619.855 513.822 619.855C507.925 619.855 502.764 622.839 499.674 627.362" fill="url(#paint10_linear_202_1715)"/>
<path d="M548.317 650.12C542.617 651.643 538.401 655.863 536.59 661.032C535.457 664.26 532.733 666.661 529.434 667.543L515.699 671.223C512.397 672.109 508.838 671.389 506.244 669.164C502.087 665.59 496.332 664.051 490.636 665.578C480.413 668.314 474.807 679.679 479.551 689.737C482.515 696.023 489.356 699.995 496.285 699.46C503.736 698.885 509.295 693.976 511.377 687.733C512.432 684.572 515.266 682.328 518.49 681.466L532.134 677.809C535.354 676.947 538.933 677.47 541.432 679.683C546.353 684.048 553.623 685.517 560.367 682.293C566.634 679.293 570.57 672.428 569.995 665.5C569.208 656.044 561.41 649.529 552.789 649.529C551.313 649.529 549.809 649.718 548.317 650.12Z" fill="url(#paint11_linear_202_1715)"/>
<path d="M589.461 670.424C584.352 673.372 581.372 678.533 580.959 684.001C580.703 687.41 578.687 690.433 575.731 692.141L563.422 699.251C560.461 700.959 556.836 701.188 553.757 699.707C548.817 697.334 542.857 697.334 537.748 700.282C528.584 705.573 526.108 718 533.296 726.491C537.783 731.794 545.42 733.864 551.974 731.55C559.021 729.062 563.122 722.881 563.52 716.319C563.721 712.989 565.878 710.092 568.767 708.423L581.002 701.361C583.887 699.692 587.477 699.27 590.461 700.758C596.35 703.703 603.747 703.238 609.427 698.381C614.706 693.862 616.733 686.209 614.383 679.671C611.738 672.309 605.014 668.109 598.07 668.109C595.146 668.109 592.178 668.857 589.461 670.424" fill="url(#paint12_linear_202_1715)"/>
<path d="M634.463 679.384C630.291 683.557 628.747 689.316 629.763 694.701C630.397 698.063 629.236 701.504 626.819 703.921L616.765 713.974C614.352 716.387 610.907 717.549 607.553 716.915C602.168 715.899 596.405 717.438 592.237 721.611C584.753 729.094 585.584 741.738 594.72 748.076C600.428 752.04 608.341 752.064 614.072 748.135C620.237 743.903 622.599 736.877 621.28 730.433C620.615 727.165 621.949 723.804 624.307 721.446L634.294 711.459C636.652 709.097 640.01 707.763 643.281 708.432C649.725 709.747 656.755 707.389 660.979 701.22C664.912 695.493 664.888 687.58 660.928 681.868C657.44 676.846 652.051 674.334 646.658 674.334C642.246 674.334 637.829 676.019 634.463 679.384" fill="url(#paint13_linear_202_1715)"/>
<path d="M680.248 676.399C677.3 681.501 677.3 687.465 679.674 692.405C681.154 695.487 680.926 699.109 679.217 702.069L672.108 714.382C670.399 717.339 667.372 719.35 663.967 719.61C658.503 720.023 653.339 722.999 650.39 728.113C645.104 737.273 649.174 749.275 659.633 753.031C666.175 755.381 673.828 753.354 678.343 748.071C683.205 742.398 683.665 734.998 680.725 729.117C679.233 726.133 679.654 722.535 681.323 719.65L688.385 707.419C690.054 704.53 692.955 702.368 696.282 702.172C702.852 701.774 709.028 697.672 711.516 690.626C713.827 684.072 711.756 676.435 706.454 671.943C703.092 669.101 699.112 667.771 695.203 667.771C689.239 667.771 683.441 670.861 680.248 676.399" fill="url(#paint14_linear_202_1715)"/>
<path d="M723.699 661.66C722.172 667.356 723.719 673.115 727.289 677.272C729.513 679.863 730.234 683.421 729.348 686.724L725.668 700.454C724.786 703.757 722.381 706.481 719.157 707.611C713.984 709.426 709.768 713.638 708.245 719.338C705.505 729.561 712.543 740.095 723.625 741.02C730.553 741.594 737.414 737.654 740.414 731.383C743.638 724.644 742.169 717.377 737.808 712.453C735.595 709.957 735.068 706.379 735.934 703.155L739.591 689.511C740.453 686.291 742.697 683.453 745.862 682.402C752.101 680.319 757.006 674.761 757.585 667.309C758.124 660.381 754.148 653.535 747.857 650.571C745.385 649.406 742.835 648.867 740.351 648.867C732.734 648.867 725.766 653.949 723.699 661.66" fill="url(#paint15_linear_202_1715)"/>
<path d="M761.856 636.176C761.856 642.073 764.836 647.237 769.363 650.324C772.185 652.252 773.799 655.508 773.799 658.929V673.139C773.799 676.56 772.185 679.812 769.363 681.741C764.836 684.831 761.856 689.991 761.856 695.892C761.856 706.474 771.382 714.831 782.326 712.851C789.163 711.615 794.777 706.033 796.048 699.203C797.418 691.853 794.119 685.217 788.628 681.591C785.849 679.753 784.412 676.43 784.412 673.096V658.972C784.412 655.638 785.849 652.311 788.628 650.477C794.119 646.851 797.418 640.211 796.048 632.861C794.777 626.032 789.163 620.45 782.326 619.217C781.235 619.021 780.161 618.926 779.106 618.926C769.579 618.922 761.856 626.649 761.856 636.176" fill="url(#paint16_linear_202_1715)"/>
<path d="M807.5 580.007C796.419 580.932 789.38 591.47 792.116 601.685C793.647 607.385 797.859 611.601 803.032 613.412C806.256 614.541 808.657 617.269 809.539 620.568L813.219 634.303C814.105 637.605 813.393 641.16 811.161 643.754C807.59 647.911 806.047 653.666 807.575 659.366C810.31 669.585 821.675 675.191 831.737 670.451C838.019 667.487 841.995 660.646 841.456 653.717C840.881 646.262 835.972 640.703 829.733 638.625C826.572 637.57 824.328 634.732 823.466 631.512L819.809 617.868C818.947 614.648 819.471 611.065 821.683 608.57C826.044 603.645 827.513 596.378 824.289 589.635C821.482 583.778 815.306 579.952 808.854 579.952C808.401 579.952 807.952 579.971 807.5 580.007" fill="url(#paint17_linear_202_1715)"/>
<path d="M821.667 535.618C811.2 539.378 807.129 551.376 812.424 560.54C815.372 565.646 820.533 568.626 826.001 569.039C829.41 569.299 832.433 571.31 834.142 574.267L841.247 586.584C842.955 589.54 843.188 593.166 841.704 596.248C839.33 601.184 839.33 607.144 842.278 612.254C847.573 621.418 859.996 623.89 868.487 616.706C873.79 612.218 875.86 604.581 873.55 598.027C871.058 590.981 864.881 586.875 858.315 586.481C854.989 586.281 852.084 584.12 850.419 581.234L843.357 569.003C841.688 566.114 841.271 562.52 842.762 559.536C845.703 553.651 845.238 546.251 840.377 540.574C837.114 536.768 832.224 534.65 827.296 534.65C825.395 534.65 823.489 534.965 821.667 535.618" fill="url(#paint18_linear_202_1715)"/>
<path d="M823.863 489.073C814.731 495.415 813.9 508.059 821.387 515.542C825.556 519.711 831.315 521.254 836.7 520.238C840.058 519.601 843.498 520.762 845.915 523.183L855.969 533.233C858.386 535.65 859.543 539.094 858.91 542.448C857.894 547.833 859.437 553.596 863.606 557.765C871.093 565.248 883.733 564.418 890.075 555.281C894.035 549.573 894.059 541.661 890.13 535.929C885.902 529.761 878.872 527.403 872.428 528.722C869.16 529.387 865.799 528.052 863.445 525.69L853.454 515.704C851.096 513.35 849.757 509.988 850.427 506.721C851.745 500.277 849.387 493.246 843.223 489.018C840.369 487.066 836.976 486.085 833.578 486.085C830.154 486.085 826.733 487.081 823.863 489.073" fill="url(#paint19_linear_202_1715)"/>
<path d="M813.939 443.545C806.759 452.036 809.231 464.464 818.391 469.751C823.501 472.707 829.465 472.707 834.401 470.329C837.483 468.849 841.109 469.074 844.069 470.786L856.379 477.895C859.339 479.6 861.35 482.627 861.61 486.04C862.02 491.5 864.999 496.664 870.109 499.613C879.273 504.9 891.272 500.829 895.031 490.366C897.381 483.828 895.354 476.175 890.075 471.656C884.394 466.798 876.994 466.338 871.109 469.278C868.129 470.77 864.535 470.345 861.646 468.676L849.415 461.614C846.526 459.945 844.364 457.048 844.168 453.717C843.77 447.151 839.672 440.975 832.622 438.487C830.827 437.853 828.953 437.546 827.083 437.546C822.119 437.546 817.199 439.696 813.939 443.545Z" fill="url(#paint20_linear_202_1715)"/>
<path d="M792.568 402.141C787.833 412.203 793.438 423.564 803.653 426.304C809.353 427.831 815.113 426.284 819.269 422.714C821.86 420.485 825.422 419.769 828.721 420.655L842.451 424.331C845.754 425.217 848.478 427.618 849.608 430.842C851.423 436.019 855.639 440.231 861.335 441.758C871.558 444.494 882.092 437.46 883.013 426.374C883.592 419.45 879.651 412.585 873.384 409.585C866.645 406.361 859.378 407.83 854.454 412.199C851.958 414.408 848.376 414.931 845.16 414.069L831.512 410.412C828.292 409.55 825.454 407.306 824.399 404.141C822.32 397.898 816.758 392.997 809.306 392.418C808.885 392.387 808.468 392.371 808.05 392.371C801.563 392.371 795.355 396.237 792.568 402.141" fill="url(#paint21_linear_202_1715)"/>
<path d="M823.588 361.372C821.753 364.159 818.427 365.588 815.097 365.588H800.969C797.631 365.588 794.312 364.159 792.474 361.372C788.848 355.88 782.211 352.585 774.862 353.955C768.028 355.227 762.446 360.836 761.214 367.674C759.238 378.621 767.591 388.144 778.176 388.144C784.073 388.144 789.234 385.164 792.324 380.641C794.253 377.818 797.509 376.204 800.921 376.204H815.14C818.557 376.204 821.808 377.818 823.737 380.641C826.827 385.164 831.992 388.144 837.889 388.144C848.466 388.144 856.827 378.621 854.847 367.674C853.611 360.836 848.033 355.227 841.203 353.955C840.078 353.747 838.972 353.644 837.885 353.644C831.894 353.644 826.658 356.723 823.588 361.372" fill="url(#paint22_linear_202_1715)"/>
<path d="M795.714 308.543C788.262 309.122 782.704 314.027 780.621 320.27C779.566 323.427 776.728 325.675 773.508 326.537L759.864 330.19C756.64 331.056 753.062 330.536 750.57 328.32C745.646 323.958 738.379 322.486 731.632 325.714C725.365 328.71 721.429 335.579 722.003 342.499C722.928 353.584 733.466 360.623 743.685 357.883C749.381 356.356 753.594 352.144 755.412 346.967C756.542 343.747 759.266 341.346 762.565 340.46L776.299 336.783C779.598 335.894 783.16 336.61 785.755 338.838C789.908 342.413 795.667 343.952 801.367 342.428C811.586 339.689 817.187 328.328 812.448 318.266C809.665 312.362 803.457 308.496 796.97 308.496C796.552 308.496 796.131 308.512 795.714 308.543" fill="url(#paint23_linear_202_1715)"/>
<path d="M740.024 276.453C732.974 278.941 728.876 285.117 728.478 291.684C728.281 295.014 726.12 297.919 723.227 299.584L711 306.646C708.111 308.315 704.521 308.732 701.537 307.241C695.652 304.3 688.251 304.765 682.571 309.626C677.292 314.141 675.265 321.794 677.615 328.336C681.374 338.799 693.373 342.87 702.537 337.579C707.646 334.631 710.626 329.47 711.04 324.002C711.296 320.597 713.307 317.574 716.267 315.861L728.577 308.756C731.537 307.048 735.166 306.815 738.245 308.296C743.181 310.673 749.141 310.673 754.25 307.725C763.415 302.434 765.887 290.007 758.707 281.516C755.443 277.662 750.523 275.516 745.563 275.516C743.693 275.516 741.819 275.823 740.024 276.453Z" fill="url(#paint24_linear_202_1715)"/>
<rect x="657.428" y="371.143" width="17.1429" height="71.4286" fill="url(#paint25_linear_202_1715)"/>
<rect x="657.428" y="562.571" width="17.1429" height="71.4286" fill="url(#paint26_linear_202_1715)"/>
<rect x="619.572" y="371.143" width="17.1429" height="71.4286" fill="url(#paint27_linear_202_1715)"/>
<rect x="619.572" y="562.571" width="17.1429" height="71.4286" fill="url(#paint28_linear_202_1715)"/>
<path d="M743.498 459.574C733.22 437.017 715.438 418.722 693.183 407.806C670.928 396.89 645.577 394.028 621.448 399.708C597.32 405.389 575.907 419.259 560.859 438.957C545.811 458.655 538.058 482.961 538.922 507.734C539.786 532.507 549.213 556.214 565.597 574.816C581.98 593.418 604.307 605.763 628.772 609.749C653.238 613.735 678.328 609.114 699.769 596.674C721.21 584.235 737.674 564.745 746.356 541.528L731.303 535.898C723.923 555.634 709.928 572.199 691.704 582.773C673.479 593.347 652.152 597.275 631.356 593.887C610.561 590.499 591.583 580.005 577.657 564.194C563.731 548.382 555.718 528.231 554.984 507.174C554.25 486.117 560.839 465.457 573.63 448.714C586.421 431.97 604.622 420.18 625.131 415.352C645.64 410.524 667.189 412.956 686.106 422.235C705.023 431.514 720.137 447.065 728.873 466.238L743.498 459.574Z" fill="url(#paint29_linear_202_1715)"/>
<path d="M581.001 474.382C587.853 459.344 599.708 447.148 614.544 439.87C629.381 432.593 646.282 430.685 662.368 434.472C678.454 438.259 692.728 447.506 702.761 460.638C712.793 473.77 717.961 489.974 717.385 506.489C716.809 523.004 710.525 538.809 699.602 551.21C688.68 563.612 673.795 571.842 657.485 574.499C641.175 577.156 624.448 574.076 610.154 565.783C595.86 557.489 584.884 544.497 579.096 529.018L593.815 523.514C598.33 535.587 606.891 545.722 618.04 552.19C629.189 558.659 642.236 561.062 654.958 558.989C667.68 556.917 679.29 550.497 687.81 540.824C696.329 531.151 701.231 518.823 701.68 505.941C702.13 493.059 698.098 480.42 690.273 470.177C682.448 459.935 671.314 452.722 658.767 449.768C646.22 446.814 633.037 448.302 621.465 453.979C609.892 459.655 600.646 469.169 595.301 480.898L581.001 474.382Z" fill="url(#paint30_linear_202_1715)"/>
<path d="M1079.88 600.48C1060.47 600.48 1042.73 595.907 1026.68 586.76C1010.63 577.427 997.933 564.827 988.6 548.96C979.453 532.907 974.88 515.173 974.88 495.76C974.88 476.347 979.453 458.707 988.6 442.84C997.933 426.787 1010.63 414.187 1026.68 405.04C1042.73 395.707 1060.47 391.04 1079.88 391.04C1110.12 391.04 1135.13 401.96 1154.92 423.8L1128.32 449.56C1115.44 434.44 1099.39 426.88 1080.16 426.88C1067.65 426.88 1056.27 429.773 1046 435.56C1035.73 441.16 1027.61 449.187 1021.64 459.64C1015.85 470.093 1012.96 482.133 1012.96 495.76C1012.96 509.387 1015.85 521.427 1021.64 531.88C1027.61 542.333 1035.73 550.453 1046 556.24C1056.27 561.84 1067.65 564.64 1080.16 564.64C1101.25 564.64 1118.89 555.867 1133.08 538.32L1159.96 563.8C1150.07 575.747 1138.31 584.893 1124.68 591.24C1111.24 597.4 1096.31 600.48 1079.88 600.48ZM1252.77 600.48C1238.02 600.48 1224.86 597.213 1213.29 590.68C1201.72 583.96 1192.66 574.907 1186.13 563.52C1179.78 551.947 1176.61 538.973 1176.61 524.6C1176.61 510.413 1179.78 497.533 1186.13 485.96C1192.66 474.387 1201.72 465.333 1213.29 458.8C1224.86 452.08 1238.02 448.72 1252.77 448.72C1267.33 448.72 1280.4 452.08 1291.97 458.8C1303.54 465.333 1312.5 474.387 1318.85 485.96C1325.38 497.533 1328.65 510.413 1328.65 524.6C1328.65 538.973 1325.38 551.947 1318.85 563.52C1312.5 574.907 1303.54 583.96 1291.97 590.68C1280.4 597.213 1267.33 600.48 1252.77 600.48ZM1252.77 566.6C1259.86 566.6 1266.4 564.92 1272.37 561.56C1278.34 558.2 1283.1 553.347 1286.65 547C1290.2 540.653 1291.97 533.187 1291.97 524.6C1291.97 516.2 1290.2 508.827 1286.65 502.48C1283.1 496.133 1278.34 491.28 1272.37 487.92C1266.4 484.56 1259.86 482.88 1252.77 482.88C1245.68 482.88 1239.14 484.56 1233.17 487.92C1227.2 491.28 1222.34 496.133 1218.61 502.48C1215.06 508.827 1213.29 516.2 1213.29 524.6C1213.29 533 1215.06 540.467 1218.61 547C1222.34 553.347 1227.2 558.2 1233.17 561.56C1239.14 564.92 1245.68 566.6 1252.77 566.6ZM1374.7 437.52C1368.17 437.52 1362.57 435.187 1357.9 430.52C1353.24 425.853 1350.9 420.253 1350.9 413.72C1350.9 407.187 1353.24 401.68 1357.9 397.2C1362.57 392.533 1368.17 390.2 1374.7 390.2C1381.24 390.2 1386.74 392.533 1391.22 397.2C1395.89 401.68 1398.22 407.187 1398.22 413.72C1398.22 420.253 1395.89 425.853 1391.22 430.52C1386.74 435.187 1381.24 437.52 1374.7 437.52ZM1356.22 453.2H1392.9V596H1356.22V453.2ZM1531.33 600.48C1511.91 600.48 1494.18 595.907 1478.13 586.76C1462.07 577.427 1449.38 564.827 1440.05 548.96C1430.9 532.907 1426.33 515.173 1426.33 495.76C1426.33 476.347 1430.9 458.707 1440.05 442.84C1449.38 426.787 1462.07 414.187 1478.13 405.04C1494.18 395.707 1511.91 391.04 1531.33 391.04C1561.57 391.04 1586.58 401.96 1606.37 423.8L1579.77 449.56C1566.89 434.44 1550.83 426.88 1531.61 426.88C1519.1 426.88 1507.71 429.773 1497.45 435.56C1487.18 441.16 1479.06 449.187 1473.09 459.64C1467.3 470.093 1464.41 482.133 1464.41 495.76C1464.41 509.387 1467.3 521.427 1473.09 531.88C1479.06 542.333 1487.18 550.453 1497.45 556.24C1507.71 561.84 1519.1 564.64 1531.61 564.64C1552.7 564.64 1570.34 555.867 1584.53 538.32L1611.41 563.8C1601.51 575.747 1589.75 584.893 1576.13 591.24C1562.69 597.4 1547.75 600.48 1531.33 600.48ZM1704.22 600.48C1689.47 600.48 1676.31 597.213 1664.74 590.68C1653.16 583.96 1644.11 574.907 1637.58 563.52C1631.23 551.947 1628.06 538.973 1628.06 524.6C1628.06 510.413 1631.23 497.533 1637.58 485.96C1644.11 474.387 1653.16 465.333 1664.74 458.8C1676.31 452.08 1689.47 448.72 1704.22 448.72C1718.78 448.72 1731.84 452.08 1743.42 458.8C1754.99 465.333 1763.95 474.387 1770.3 485.96C1776.83 497.533 1780.1 510.413 1780.1 524.6C1780.1 538.973 1776.83 551.947 1770.3 563.52C1763.95 574.907 1754.99 583.96 1743.42 590.68C1731.84 597.213 1718.78 600.48 1704.22 600.48ZM1704.22 566.6C1711.31 566.6 1717.84 564.92 1723.82 561.56C1729.79 558.2 1734.55 553.347 1738.1 547C1741.64 540.653 1743.42 533.187 1743.42 524.6C1743.42 516.2 1741.64 508.827 1738.1 502.48C1734.55 496.133 1729.79 491.28 1723.82 487.92C1717.84 484.56 1711.31 482.88 1704.22 482.88C1697.12 482.88 1690.59 484.56 1684.62 487.92C1678.64 491.28 1673.79 496.133 1670.06 502.48C1666.51 508.827 1664.74 516.2 1664.74 524.6C1664.74 533 1666.51 540.467 1670.06 547C1673.79 553.347 1678.64 558.2 1684.62 561.56C1690.59 564.92 1697.12 566.6 1704.22 566.6ZM1826.15 437.52C1819.61 437.52 1814.01 435.187 1809.35 430.52C1804.68 425.853 1802.35 420.253 1802.35 413.72C1802.35 407.187 1804.68 401.68 1809.35 397.2C1814.01 392.533 1819.61 390.2 1826.15 390.2C1832.68 390.2 1838.19 392.533 1842.67 397.2C1847.33 401.68 1849.67 407.187 1849.67 413.72C1849.67 420.253 1847.33 425.853 1842.67 430.52C1838.19 435.187 1832.68 437.52 1826.15 437.52ZM1807.67 453.2H1844.35V596H1807.67V453.2ZM1882.81 453.2H1917.25V471.12H1919.49C1923.78 464.213 1929.85 458.8 1937.69 454.88C1945.53 450.773 1954.02 448.72 1963.17 448.72C1980.34 448.72 1993.41 453.947 2002.37 464.4C2011.33 474.853 2015.81 489.133 2015.81 507.24V596H1979.13V511.72C1979.13 502.573 1976.8 495.48 1972.13 490.44C1967.46 485.4 1960.93 482.88 1952.53 482.88C1942.64 482.88 1934.61 486.707 1928.45 494.36C1922.48 502.013 1919.49 511.627 1919.49 523.2V596H1882.81V453.2Z" fill="#F5FFF9"/>
<defs>
<linearGradient id="paint0_linear_202_1715" x1="1214.5" y1="0" x2="1214.5" y2="1007" gradientUnits="userSpaceOnUse">
<stop offset="0.315625" stop-color="#485566"/>
<stop offset="1" stop-color="#253345"/>
</linearGradient>
<linearGradient id="paint1_linear_202_1715" x1="666.449" y1="248.072" x2="666.449" y2="682.204" gradientUnits="userSpaceOnUse">
<stop stop-color="#00986A"/>
<stop offset="0.211458" stop-color="#10FF7E"/>
<stop offset="0.909375" stop-color="#18AF5E"/>
</linearGradient>
<linearGradient id="paint2_linear_202_1715" x1="611.735" y1="244.034" x2="611.735" y2="731.956" gradientUnits="userSpaceOnUse">
<stop stop-color="#00986A"/>
<stop offset="0.211458" stop-color="#10FF7E"/>
<stop offset="0.909375" stop-color="#18AF5E"/>
</linearGradient>
<linearGradient id="paint3_linear_202_1715" x1="559.356" y1="256.269" x2="559.356" y2="777.991" gradientUnits="userSpaceOnUse">
<stop stop-color="#00986A"/>
<stop offset="0.211458" stop-color="#10FF7E"/>
<stop offset="0.909375" stop-color="#18AF5E"/>
</linearGradient>
<linearGradient id="paint4_linear_202_1715" x1="512.894" y1="283.973" x2="512.894" y2="817.053" gradientUnits="userSpaceOnUse">
<stop stop-color="#00986A"/>
<stop offset="0.211458" stop-color="#10FF7E"/>
<stop offset="0.909375" stop-color="#18AF5E"/>
</linearGradient>
<linearGradient id="paint5_linear_202_1715" x1="475.482" y1="325.191" x2="475.482" y2="846.882" gradientUnits="userSpaceOnUse">
<stop stop-color="#00986A"/>
<stop offset="0.211458" stop-color="#10FF7E"/>
<stop offset="0.909375" stop-color="#18AF5E"/>
</linearGradient>
<linearGradient id="paint6_linear_202_1715" x1="449.703" y1="377.156" x2="449.703" y2="865.058" gradientUnits="userSpaceOnUse">
<stop stop-color="#00986A"/>
<stop offset="0.211458" stop-color="#10FF7E"/>
<stop offset="0.909375" stop-color="#18AF5E"/>
</linearGradient>
<linearGradient id="paint7_linear_202_1715" x1="437.303" y1="436.319" x2="437.303" y2="870.452" gradientUnits="userSpaceOnUse">
<stop stop-color="#00986A"/>
<stop offset="0.211458" stop-color="#10FF7E"/>
<stop offset="0.909375" stop-color="#18AF5E"/>
</linearGradient>
<linearGradient id="paint8_linear_202_1715" x1="439.115" y1="498.637" x2="439.115" y2="862.884" gradientUnits="userSpaceOnUse">
<stop stop-color="#00986A"/>
<stop offset="0.211458" stop-color="#10FF7E"/>
<stop offset="0.909375" stop-color="#18AF5E"/>
</linearGradient>
<linearGradient id="paint9_linear_202_1715" x1="455.029" y1="559.88" x2="455.029" y2="842.658" gradientUnits="userSpaceOnUse">
<stop stop-color="#00986A"/>
<stop offset="0.211458" stop-color="#10FF7E"/>
<stop offset="0.909375" stop-color="#18AF5E"/>
</linearGradient>
<linearGradient id="paint10_linear_202_1715" x1="483.966" y1="615.867" x2="483.966" y2="811.1" gradientUnits="userSpaceOnUse">
<stop stop-color="#00986A"/>
<stop offset="0.211458" stop-color="#10FF7E"/>
<stop offset="0.909375" stop-color="#18AF5E"/>
</linearGradient>
<linearGradient id="paint11_linear_202_1715" x1="523.947" y1="643.753" x2="523.947" y2="926.528" gradientUnits="userSpaceOnUse">
<stop stop-color="#00986A"/>
<stop offset="0.211458" stop-color="#10FF7E"/>
<stop offset="0.909375" stop-color="#18AF5E"/>
</linearGradient>
<linearGradient id="paint12_linear_202_1715" x1="572.235" y1="660.669" x2="572.235" y2="1024.92" gradientUnits="userSpaceOnUse">
<stop stop-color="#00986A"/>
<stop offset="0.211458" stop-color="#10FF7E"/>
<stop offset="0.909375" stop-color="#18AF5E"/>
</linearGradient>
<linearGradient id="paint13_linear_202_1715" x1="625.548" y1="665.466" x2="625.548" y2="1099.61" gradientUnits="userSpaceOnUse">
<stop stop-color="#00986A"/>
<stop offset="0.211458" stop-color="#10FF7E"/>
<stop offset="0.909375" stop-color="#18AF5E"/>
</linearGradient>
<linearGradient id="paint14_linear_202_1715" x1="680.265" y1="657.805" x2="680.265" y2="1145.68" gradientUnits="userSpaceOnUse">
<stop stop-color="#00986A"/>
<stop offset="0.211458" stop-color="#10FF7E"/>
<stop offset="0.909375" stop-color="#18AF5E"/>
</linearGradient>
<linearGradient id="paint15_linear_202_1715" x1="732.642" y1="638.21" x2="732.642" y2="1159.92" gradientUnits="userSpaceOnUse">
<stop stop-color="#00986A"/>
<stop offset="0.211458" stop-color="#10FF7E"/>
<stop offset="0.909375" stop-color="#18AF5E"/>
</linearGradient>
<linearGradient id="paint16_linear_202_1715" x1="779.107" y1="608.038" x2="779.107" y2="1141.11" gradientUnits="userSpaceOnUse">
<stop stop-color="#00986A"/>
<stop offset="0.211458" stop-color="#10FF7E"/>
<stop offset="0.909375" stop-color="#18AF5E"/>
</linearGradient>
<linearGradient id="paint17_linear_202_1715" x1="816.514" y1="569.296" x2="816.514" y2="1090.98" gradientUnits="userSpaceOnUse">
<stop stop-color="#00986A"/>
<stop offset="0.211458" stop-color="#10FF7E"/>
<stop offset="0.909375" stop-color="#18AF5E"/>
</linearGradient>
<linearGradient id="paint18_linear_202_1715" x1="842.296" y1="524.684" x2="842.296" y2="1012.58" gradientUnits="userSpaceOnUse">
<stop stop-color="#00986A"/>
<stop offset="0.211458" stop-color="#10FF7E"/>
<stop offset="0.909375" stop-color="#18AF5E"/>
</linearGradient>
<linearGradient id="paint19_linear_202_1715" x1="854.695" y1="477.218" x2="854.695" y2="911.361" gradientUnits="userSpaceOnUse">
<stop stop-color="#00986A"/>
<stop offset="0.211458" stop-color="#10FF7E"/>
<stop offset="0.909375" stop-color="#18AF5E"/>
</linearGradient>
<linearGradient id="paint20_linear_202_1715" x1="852.883" y1="430.106" x2="852.883" y2="794.355" gradientUnits="userSpaceOnUse">
<stop stop-color="#00986A"/>
<stop offset="0.211458" stop-color="#10FF7E"/>
<stop offset="0.909375" stop-color="#18AF5E"/>
</linearGradient>
<linearGradient id="paint21_linear_202_1715" x1="836.967" y1="386.595" x2="836.967" y2="669.37" gradientUnits="userSpaceOnUse">
<stop stop-color="#00986A"/>
<stop offset="0.211458" stop-color="#10FF7E"/>
<stop offset="0.909375" stop-color="#18AF5E"/>
</linearGradient>
<linearGradient id="paint22_linear_202_1715" x1="808.031" y1="349.657" x2="808.031" y2="544.851" gradientUnits="userSpaceOnUse">
<stop stop-color="#00986A"/>
<stop offset="0.211458" stop-color="#10FF7E"/>
<stop offset="0.909375" stop-color="#18AF5E"/>
</linearGradient>
<linearGradient id="paint23_linear_202_1715" x1="768.05" y1="302.72" x2="768.05" y2="585.501" gradientUnits="userSpaceOnUse">
<stop stop-color="#00986A"/>
<stop offset="0.211458" stop-color="#10FF7E"/>
<stop offset="0.909375" stop-color="#18AF5E"/>
</linearGradient>
<linearGradient id="paint24_linear_202_1715" x1="719.762" y1="268.076" x2="719.762" y2="632.317" gradientUnits="userSpaceOnUse">
<stop stop-color="#00986A"/>
<stop offset="0.211458" stop-color="#10FF7E"/>
<stop offset="0.909375" stop-color="#18AF5E"/>
</linearGradient>
<linearGradient id="paint25_linear_202_1715" x1="666" y1="371.143" x2="666" y2="442.571" gradientUnits="userSpaceOnUse">
<stop stop-color="#10FF7E"/>
<stop offset="0.378125" stop-color="#00986A"/>
<stop offset="1" stop-color="#18AF5E"/>
</linearGradient>
<linearGradient id="paint26_linear_202_1715" x1="666" y1="562.571" x2="666" y2="634" gradientUnits="userSpaceOnUse">
<stop offset="0.185417" stop-color="#00986A"/>
<stop offset="0.732292" stop-color="#18AF5E"/>
<stop offset="1" stop-color="#10FF7E"/>
</linearGradient>
<linearGradient id="paint27_linear_202_1715" x1="628.143" y1="371.143" x2="628.143" y2="442.571" gradientUnits="userSpaceOnUse">
<stop stop-color="#10FF7E"/>
<stop offset="0.378125" stop-color="#00986A"/>
<stop offset="1" stop-color="#18AF5E"/>
</linearGradient>
<linearGradient id="paint28_linear_202_1715" x1="628.143" y1="562.571" x2="628.143" y2="634" gradientUnits="userSpaceOnUse">
<stop offset="0.185417" stop-color="#00986A"/>
<stop offset="0.732292" stop-color="#18AF5E"/>
<stop offset="1" stop-color="#10FF7E"/>
</linearGradient>
<linearGradient id="paint29_linear_202_1715" x1="646" y1="396.857" x2="646" y2="611.143" gradientUnits="userSpaceOnUse">
<stop stop-color="#00986A"/>
<stop offset="0.232292" stop-color="#10FF7E"/>
<stop offset="0.919792" stop-color="#18AF5E"/>
</linearGradient>
<linearGradient id="paint30_linear_202_1715" x1="646" y1="432.571" x2="646" y2="575.428" gradientUnits="userSpaceOnUse">
<stop stop-color="#00986A"/>
<stop offset="0.232292" stop-color="#10FF7E"/>
<stop offset="0.919792" stop-color="#18AF5E"/>
</linearGradient>
</defs>
</svg>
